HIERARCHY
ROOT Hips
{
    OFFSET 0.0 0.0 0.0
    CHANNELS 6 Xposition Yposition Zposition Zrotation Xrotation Yrotation
    JOINT LeftUpLeg
    {
        OFFSET 12.350025412835652 0.0 0.0
        CHANNELS 3 Zrotation Xrotation Yrotation
        JOINT LeftLeg
        {
            OFFSET 0.0 0.0 -64.0458805527028
            CHANNELS 3 Zrotation Xrotation Yrotation
            JOINT LeftFoot
            {
                OFFSET 0.0 0.0 -49.41840915293295
                CHANNELS 3 Zrotation Xrotation Yrotation
                JOINT LeftToeBase
                {
                    OFFSET 0.0 -12.54759193183636 0.0
                    CHANNELS 3 Zrotation Xrotation Yrotation
                    End Site
                    {
                        OFFSET 0 0 0
                    }
                }
            }
        }
    }
    JOINT RightUpLeg
    {
        OFFSET -12.350025412835652 0.0 0.0
        CHANNELS 3 Zrotation Xrotation Yrotation
        JOINT RightLeg
        {
            OFFSET 0.0 0.0 -64.0458805527028
            CHANNELS 3 Zrotation Xrotation Yrotation
            JOINT RightFoot
            {
                OFFSET 0.0 0.0 -49.41840915293295
                CHANNELS 3 Zrotation Xrotation Yrotation
                JOINT RightToeBase
                {
                    OFFSET 0.0 -12.54759193183636 0.0
                    CHANNELS 3 Zrotation Xrotation Yrotation
                    End Site
                    {
                        OFFSET 0 0 0
                    }
                }
            }
        }
    }
    JOINT Spine
    {
        OFFSET 0.0 0.0 12.083315412931647
        CHANNELS 3 Zrotation Xrotation Yrotation
        JOINT Spine1
        {
            OFFSET 0.0 0.0 11.569376591592478
            CHANNELS 3 Zrotation Xrotation Yrotation
            JOINT Spine2
            {
                OFFSET 0.0 0.0 11.569376591592478
                CHANNELS 3 Zrotation Xrotation Yrotation
                JOINT Spine3
                {
                    OFFSET 0.0 0.0 11.569376591592476
                    CHANNELS 3 Zrotation Xrotation Yrotation
                    JOINT Spine4
                    {
                        OFFSET 0.0 0.0 11.56937659159248
                        CHANNELS 3 Zrotation Xrotation Yrotation
                        JOINT RightShoulder
                        {
                            OFFSET -24.32033206898537 0.0 0.0
                            CHANNELS 3 Zrotation Xrotation Yrotation
                            JOINT RightArm
                            {
                                OFFSET -34.87857865421043 0.0 0.0
                                CHANNELS 3 Zrotation Xrotation Yrotation
                                JOINT RightForeArm
                                {
                                    OFFSET -33.053883661346404 0.0 0.0
                                    CHANNELS 3 Zrotation Xrotation Yrotation
                                    JOINT RightHand
                                    {
                                        OFFSET -10.890244707958459 0.0 0.0
                                        CHANNELS 3 Zrotation Xrotation Yrotation
                                        End Site
                                        {
                                            OFFSET 0 0 0
                                        }
                                    }
                                }
                            }
                        }
                        JOINT LeftShoulder
                        {
                            OFFSET 24.32033206898537 0.0 0.0
                            CHANNELS 3 Zrotation Xrotation Yrotation
                            JOINT LeftArm
                            {
                                OFFSET 34.87857865421043 0.0 0.0
                                CHANNELS 3 Zrotation Xrotation Yrotation
                                JOINT LeftForeArm
                                {
                                    OFFSET 33.053883661346404 0.0 0.0
                                    CHANNELS 3 Zrotation Xrotation Yrotation
                                    JOINT LeftHand
                                    {
                                        OFFSET 10.890244707958459 0.0 0.0
                                        CHANNELS 3 Zrotation Xrotation Yrotation
                                        End Site
                                        {
                                            OFFSET 0 0 0
                                        }
                                    }
                                }
                            }
                        }
                        JOINT Neck
                        {
                            OFFSET 0.0 0.0 11.569376592147794
                            CHANNELS 3 Zrotation Xrotation Yrotation
                            JOINT Head
                            {
                                OFFSET 0.0 0.0 26.07174865012251
                                CHANNELS 3 Zrotation Xrotation Yrotation
                                End Site
                                {
                                    OFFSET 0 0 0
                                }
                            }
                        }
                    }
                }
            }
        }
    }
}
MOTION
Frames: 9
Frame Time: 0.03333333333333333
49.51598854064942 18.67700645327568 539.3040533065796 13.036377446936177 -54.720736507884745 12.800102656760407 3.845763166657493 -31.63901457171647 1.2002487938155086 21.72297191383586 -19.641834038294213 20.20480968134045 -169.2951464196162 -4.770832022195275e-15 68.38313737395698 0.0 0.0 -1.1927080055488188e-15 -6.246414329952956 -33.91383394624058 1.3190177506348877 -18.32752624708724 -15.158860026135052 -18.840354755696918 81.21841825067078 -1.90833280887811e-14 -31.163754778203348 0.0 0.0 0.0 0.2807228145656375 -36.988307029618085 0.9080088199880655 7.951386703658792e-16 0.0 0.0 7.951386703658792e-16 0.0 0.0 7.951386703658792e-16 0.0 0.0 7.951386703658792e-16 0.0 0.0 148.8750302398699 7.2276489014863685 -170.55259682207802 137.25227548535466 5.344026306597433e-15 3.799220601907372e-15 -180.0 85.32712636004314 180.0 0.0 0.0 0.0 -157.14242722792594 4.762739979671539 163.19600621348707 -122.48167235277724 2.3836118449324576e-14 -9.453823701838102e-15 -2.1313617283799243e-15 38.72171218673109 1.08625288349494e-14 0.0 0.0 3.1805546814635168e-15 -1.6498721665389615 -3.0177543619725615e-15 7.517689133269823e-16 0.0 0.0 0.0
49.51598854064942 18.67700645327568 539.3040533065796 13.036377446936177 -54.720736507884745 12.800102656760407 3.845763166657493 -31.63901457171647 1.2002487938155086 21.72297191383586 -19.641834038294213 20.20480968134045 -169.2951464196162 -4.770832022195275e-15 68.38313737395698 0.0 0.0 -1.1927080055488188e-15 -6.246414329952956 -33.91383394624058 1.3190177506348877 -18.32752624708724 -15.158860026135052 -18.840354755696918 81.21841825067078 -1.90833280887811e-14 -31.163754778203348 0.0 0.0 0.0 0.2807228145656375 -36.988307029618085 0.9080088199880655 7.951386703658792e-16 0.0 0.0 7.951386703658792e-16 0.0 0.0 7.951386703658792e-16 0.0 0.0 7.951386703658792e-16 0.0 0.0 148.8750302398699 7.2276489014863685 -170.55259682207802 137.25227548535466 5.344026306597433e-15 3.799220601907372e-15 -180.0 85.32712636004314 180.0 0.0 0.0 0.0 -157.14242722792594 4.762739979671539 163.19600621348707 -122.48167235277724 2.3836118449324576e-14 -9.453823701838102e-15 -2.1313617283799243e-15 38.72171218673109 1.08625288349494e-14 0.0 0.0 3.1805546814635168e-15 -1.6498721665389615 -3.0177543619725615e-15 7.517689133269823e-16 0.0 0.0 0.0
49.51598854064942 18.67700645327568 539.3040533065796 13.036377446936177 -54.720736507884745 12.800102656760407 3.845763166657493 -31.63901457171647 1.2002487938155086 21.72297191383586 -19.641834038294213 20.20480968134045 -169.2951464196162 -4.770832022195275e-15 68.38313737395698 0.0 0.0 -1.1927080055488188e-15 -6.246414329952956 -33.91383394624058 1.3190177506348877 -18.32752624708724 -15.158860026135052 -18.840354755696918 81.21841825067078 -1.90833280887811e-14 -31.163754778203348 0.0 0.0 0.0 0.2807228145656375 -36.988307029618085 0.9080088199880655 7.951386703658792e-16 0.0 0.0 7.951386703658792e-16 0.0 0.0 7.951386703658792e-16 0.0 0.0 7.951386703658792e-16 0.0 0.0 148.8750302398699 7.2276489014863685 -170.55259682207802 137.25227548535466 5.344026306597433e-15 3.799220601907372e-15 -180.0 85.32712636004314 180.0 0.0 0.0 0.0 -157.14242722792594 4.762739979671539 163.19600621348707 -122.48167235277724 2.3836118449324576e-14 -9.453823701838102e-15 -2.1313617283799243e-15 38.72171218673109 1.08625288349494e-14 0.0 0.0 3.1805546814635168e-15 -1.6498721665389615 -3.0177543619725615e-15 7.517689133269823e-16 0.0 0.0 0.0
49.51865901947022 18.67395939230919 539.3049831390381 13.029800869861365 -54.72907261566373 12.830019860583562 3.875750073899998 -31.64085983185654 1.1960133924745722 21.721420459180642 -19.64405459385075 20.170223403170336 -163.75390311361392 1.5902773407317584e-15 74.59414177050506 0.0 0.0 2.3854160110976376e-15 -6.256646099170566 -33.90301501589477 1.2811214978028782 -18.460528483451878 -15.261786286926485 -18.940689208902473 88.54922384073274 0.0 -29.131183106595778 0.0 0.0 0.0 0.28978943301431537 -36.99085174641186 0.8744305878272729 7.951386703658791e-16 5.517382872562698e-33 7.951386703658791e-16 7.951386703658791e-16 5.517382872562698e-33 7.951386703658791e-16 7.951386703658791e-16 5.517382872562698e-33 7.951386703658791e-16 7.951386703658791e-16 5.517382872562698e-33 7.951386703658791e-16 148.6189219354587 6.75091189951006 -170.62117696197208 137.10614402749167 1.0096886307649256e-14 9.092226041123302e-15 180.0 81.46157324946871 -180.0 -8.827812596100317e-32 -3.1805546814635168e-15 -3.1805546814635168e-15 -156.63716293107842 5.031441082024495 163.1144254252368 -121.09882579503089 -1.5637921204100755e-15 -2.7695635551333452e-15 0.0 50.19837884003042 0.0 -7.95138670365879e-16 3.1805546814635164e-15 -3.1805546814635164e-15 -1.5575112092816736 -8.085688265575772e-15 6.853058973283315e-16 0.0 0.0 0.0
49.52250480651856 18.666251546144487 539.3025730133057 13.008147602866382 -54.724664417190574 12.833485471833463 3.920054340083505 -31.65784023308567 1.203844773295405 21.738686546304077 -19.651222814712117 20.14501809754289 -162.5402090761707 6.3611093629270335e-15 74.69744360686093 0.0 0.0 3.1805546814635168e-15 -6.26736686223944 -33.9096519550523 1.2518471371202038 -18.607238728624615 -15.373626743073443 -19.05837672722357 95.84179858604884 -7.951386703658792e-15 -27.5748731663006 -6.3611093629270335e-15 0.0 0.0 0.3070773680248528 -36.99431486815496 0.8548726656867651 7.951386703658792e-16 -4.969616689786745e-17 -7.951386703658792e-16 7.951386703658792e-16 -4.969616689786745e-17 -7.951386703658792e-16 7.951386703658792e-16 -4.969616689786745e-17 -7.951386703658792e-16 7.951386703658792e-16 -4.969616689786745e-17 -7.951386703658792e-16 148.51323669501647 6.6429083127711674 -170.660232386953 136.7546335852117 1.744744441726636e-14 7.771250848838543e-15 179.99999999999991 85.70602314155127 -179.99999999999991 7.951386703658792e-16 2.2069531490250793e-32 3.1805546814635168e-15 -156.1625323427883 5.121503785748394 163.0580226338982 -120.24114380238257 -1.3407842536976872e-14 2.2012373784100003e-15 180.0 80.30118925380889 -180.0 0.0 0.0 0.0 -1.4649142186020219 -9.008952658595332e-15 -9.103784644540162e-16 0.0 0.0 0.0
49.528007555007946 18.655567538738254 539.299069404602 12.978534409877046 -54.715069822882036 12.835952476172615 3.979790325789763 -31.68397281757973 1.2164046102310535 21.75608433771984 -19.65642774860022 20.11934398906325 -162.08353938605782 4.770832022195275e-15 73.85835454293525 0.0 0.0 -7.951386703658792e-16 -6.282628606712792 -33.923043519120434 1.2141755733764938 -18.76415171242521 -15.492734990712071 -19.168497023259985 103.7885279930482 1.1131941385122309e-14 -26.425301371096516 0.0 0.0 0.0 0.3305847793427691 -37.002108658310064 0.8302631768911942 7.951386703658791e-16 0.0 0.0 7.951386703658791e-16 0.0 0.0 7.951386703658791e-16 0.0 0.0 7.951386703658791e-16 0.0 0.0 148.41261103042893 6.5247694879104845 -170.7214421205632 136.30078374324916 -6.791936424325479e-15 -1.533671445902461e-16 -2.745830526706435e-14 87.60433821918897 2.633356359196445e-14 4.4139062980501586e-32 -1.5902773407317584e-15 3.1805546814635168e-15 -155.72704526513945 4.909638177669118 163.00500456372737 -119.84360253709032 7.224307049876381e-16 -1.1444874789163247e-14 180.0 -2.9649251137081225 180.0 -1.5902773407317584e-15 0.0 0.0 -1.3508948202462852 1.1041155932666226e-14 -6.650261239886833e-16 0.0 0.0 0.0
49.534956192970284 18.64253059029579 539.2946285247804 12.944803392423832 -54.698689818974664 12.839565223622314 4.050693676225014 -31.719698492270428 1.2325862448812561 21.763962259285375 -19.653083694941742 20.098371601951868 -161.97492369470578 3.1805546814635168e-15 72.92047810592962 0.0 0.0 3.975693351829396e-16 -6.3026459587692045 -33.943725327364994 1.169723025646761 -18.911827056254186 -15.604648605553729 -19.260223544259297 111.04015659986152 -1.5902773407317584e-15 -25.917261073204468 0.0 0.0 0.0 0.35725773979479875 -37.015485713239535 0.8015440500615202 -7.951386703658792e-16 0.0 0.0 -7.951386703658792e-16 0.0 0.0 -7.951386703658792e-16 0.0 0.0 -7.951386703658792e-16 0.0 0.0 148.31854196607188 6.392109034161852 -170.8010342882084 135.74291488015754 2.995174282406116e-16 -7.365696269134023e-16 3.6311868145530696e-15 77.88357671454047 -7.023620612078489e-15 3.975693351829396e-16 0.0 0.0 -155.4451854980139 4.491616893766624 162.9744496750484 -119.77423487231223 7.098306350732037e-15 -4.4009926159300784e-16 -180.0 -16.26486691216096 180.0 1.5902773407317584e-15 2.2069531490250793e-32 1.5902773407317584e-15 -1.2227433422832417 -4.456038054826787e-15 7.476342094010899e-16 7.951386703658792e-16 0.0 0.0
49.54197363853455 18.628207683563232 539.289815711975 12.906108279039497 -54.67663284329082 12.843289285221768 4.1281100452657284 -31.762793844214016 1.2486870766527112 21.764798553631994 -19.640714449847714 20.078244847278842 -162.06268672715046 -1.90833280887811e-14 71.87121918834777 0.0 0.0 1.3914926731402886e-15 -6.323779207357171 -33.970351622856775 1.1187855831050821 -19.042971128309073 -15.706068724413253 -19.331128189680655 114.8151590594736 -4.770832022195275e-15 -25.886235181161595 0.0 0.0 0.0 0.386457640296111 -37.033970639366025 0.7695540648737498 0.0 0.0 -7.951386703658792e-16 0.0 0.0 -7.951386703658792e-16 0.0 0.0 -7.951386703658792e-16 0.0 0.0 -7.951386703658792e-16 148.23983476419312 6.241364906391953 -170.89263655299737 135.09926145414335 1.9458915185662396e-14 2.878344823898441e-15 1.5635751124074894e-14 65.45096178299355 -2.1389766111180165e-14 0.0 0.0 0.0 -155.23170958283904 4.179873467227617 162.9627244804504 -119.5830237912182 1.0194400057637502e-14 -7.77547675668555e-15 180.0 -21.375124095033417 -180.0 -1.5902773407317584e-15 1.1034765745125397e-32 -7.951386703658792e-16 -1.0857515190951683 1.0060776513312702e-14 -2.29019468785827e-15 7.951386703658794e-16 5.517382872562698e-33 7.951386703658794e-16
49.54788272380829 18.615632629394533 539.2852334976196 12.867211606365833 -54.65045812976944 12.843683834896462 4.207301186325767 -31.809458003667242 1.2676514818259381 21.755789060674044 -19.61861929751459 20.055683113656713 -162.32567143768205 -4.770832022195275e-15 70.73979098985646 0.0 0.0 -2.882377680076312e-15 -6.340020381480994 -34.00063648277107 1.071208559184186 -19.111262574464313 -15.763606889027365 -19.370108176720443 117.2007480521429 0.0 -26.01686279072408 6.3611093629270335e-15 -6.3611093629270335e-15 3.531125038440127e-31 0.41834204102423556 -37.056502168790466 0.7446636246255702 -7.951386703658794e-16 0.0 0.0 -7.951386703658794e-16 0.0 0.0 -7.951386703658794e-16 0.0 0.0 -7.951386703658794e-16 0.0 0.0 148.23592751376634 6.123951998955017 -170.98708854546578 134.47843745020384 4.635250995858685e-15 5.393893641358581e-15 0.0 53.31011460354569 0.0 -3.975693351829396e-16 0.0 0.0 -155.02830623374226 3.9660580320405643 162.95922044885313 -119.69132753018229 1.4104348141509158e-14 -1.371136800728406e-14 180.0 -25.461614090682158 180.0 -1.5902773407317584e-15 -2.2069531490250793e-32 1.5902773407317584e-15 -0.9868564281409455 -2.211397419579036e-15 -1.9044908108153294e-17 0.0 0.0 0.0
